<svg width="16" height="16" viewBox="0 0 16 16" fill="none" xmlns="http://www.w3.org/2000/svg">
    <path fill-rule="evenodd" clip-rule="evenodd"
        d="M3.52867 3.52864C3.78902 3.26829 4.21113 3.26829 4.47148 3.52864L8.00007 7.05723L11.5287 3.52864C11.789 3.26829 12.2111 3.26829 12.4715 3.52864C12.7318 3.78899 12.7318 4.2111 12.4715 4.47145L8.94288 8.00004L12.4715 11.5286C12.7318 11.789 12.7318 12.2111 12.4715 12.4714C12.2111 12.7318 11.789 12.7318 11.5287 12.4714L8.00007 8.94285L4.47148 12.4714C4.21113 12.7318 3.78902 12.7318 3.52867 12.4714C3.26832 12.2111 3.26832 11.789 3.52867 11.5286L7.05726 8.00004L3.52867 4.47145C3.26832 4.2111 3.26832 3.78899 3.52867 3.52864Z"
        fill="currentColor" />
</svg>
