<svg width="16" height="16" viewBox="0 0 16 16" fill="none" xmlns="http://www.w3.org/2000/svg">
    <path fill-rule="evenodd" clip-rule="evenodd"
        d="M13.0404 2.95948C12.6499 2.56895 12.0168 2.56895 11.6262 2.95948L11.0976 3.48807L12.5118 4.90229L13.0404 4.37369C13.431 3.98317 13.431 3.35 13.0404 2.95948ZM11.569 5.8451L10.1548 4.43088L2.66671 11.919V13.3569H4.05723L11.569 5.8451ZM10.6834 2.01667C11.5946 1.10545 13.072 1.10545 13.9833 2.01667C14.8945 2.92789 14.8945 4.40528 13.9833 5.3165L4.80478 14.495C4.67975 14.62 4.51019 14.6902 4.33337 14.6902H2.00004C1.63185 14.6902 1.33337 14.3918 1.33337 14.0236V11.6429C1.33337 11.466 1.40361 11.2965 1.52864 11.1715L10.6834 2.01667Z"
        fill="currentColor" />
</svg>
