<svg width="16" height="16" viewBox="0 0 16 16" fill="none" xmlns="http://www.w3.org/2000/svg">
    <path fill-rule="evenodd" clip-rule="evenodd"
        d="M2.34152 7.99994C3.16533 10.331 5.38874 12 8.00031 12C10.6119 12 12.8353 10.331 13.6591 7.99998C12.8353 5.66893 10.6119 3.99996 8.00029 3.99996C5.38874 3.99996 3.16534 5.66891 2.34152 7.99994ZM1.0028 7.80017C1.93708 4.82557 4.71569 2.66663 8.00029 2.66663C11.2849 2.66663 14.0635 4.8256 14.9978 7.80022C15.0386 7.93027 15.0386 8.06971 14.9978 8.19975C14.0635 11.1743 11.2849 13.3333 8.00031 13.3333C4.71569 13.3333 1.93706 11.1743 1.0028 8.1997C0.961956 8.06965 0.961957 7.93021 1.0028 7.80017ZM8 6.66663C7.26362 6.66663 6.66667 7.26358 6.66667 7.99996C6.66667 8.73634 7.26362 9.33329 8 9.33329C8.73638 9.33329 9.33333 8.73634 9.33333 7.99996C9.33333 7.26358 8.73638 6.66663 8 6.66663ZM5.33333 7.99996C5.33333 6.5272 6.52724 5.33329 8 5.33329C9.47276 5.33329 10.6667 6.5272 10.6667 7.99996C10.6667 9.47272 9.47276 10.6666 8 10.6666C6.52724 10.6666 5.33333 9.47272 5.33333 7.99996Z"
        fill="currentColor" />
</svg>
