<svg width="20" height="20" viewBox="0 0 20 20" fill="none" xmlns="http://www.w3.org/2000/svg">
<path fill-rule="evenodd" clip-rule="evenodd" d="M9.41075 1.91076C9.73619 1.58533 10.2638 1.58533 10.5893 1.91076L18.0893 9.41077C18.4147 9.7362 18.4147 10.2638 18.0893 10.5893C17.7638 10.9147 17.2362 10.9147 16.9107 10.5893L16.6667 10.3452V16.6667C16.6667 17.5872 15.9205 18.3334 15 18.3334H5.00001C4.07953 18.3334 3.33334 17.5872 3.33334 16.6667V10.3452L3.08926 10.5893C2.76382 10.9147 2.23619 10.9147 1.91075 10.5893C1.58531 10.2638 1.58531 9.7362 1.91075 9.41077L9.41075 1.91076ZM5.00001 8.67853V16.6667H7.50001V13.3334C7.50001 12.4129 8.2462 11.6667 9.16667 11.6667H10.8333C11.7538 11.6667 12.5 12.4129 12.5 13.3334V16.6667H15V8.67853L10 3.67853L5.00001 8.67853ZM10.8333 16.6667V13.3334H9.16667V16.6667H10.8333Z" fill="#667085"/>
</svg>
