<svg width="20" height="20" viewBox="0 0 20 20" fill="none" xmlns="http://www.w3.org/2000/svg">
<path fill-rule="evenodd" clip-rule="evenodd" d="M8.41665 4.08333C7.15687 4.08333 5.94869 4.58378 5.05789 5.47458C4.16709 6.36537 3.66665 7.57355 3.66665 8.83333C3.66665 9.45711 3.78951 10.0748 4.02822 10.6511C4.26693 11.2274 4.61681 11.751 5.05789 12.1921C5.49897 12.6332 6.0226 12.9831 6.5989 13.2218C7.1752 13.4605 7.79287 13.5833 8.41665 13.5833C9.04043 13.5833 9.6581 13.4605 10.2344 13.2218C10.8107 12.9831 11.3343 12.6332 11.7754 12.1921C12.2165 11.751 12.5664 11.2274 12.8051 10.6511C13.0438 10.0748 13.1666 9.45711 13.1666 8.83333C13.1666 7.57356 12.6662 6.36537 11.7754 5.47458C10.8846 4.58378 9.67642 4.08333 8.41665 4.08333ZM3.9383 4.35499C5.12603 3.16726 6.73694 2.5 8.41665 2.5C10.0964 2.5 11.7073 3.16726 12.895 4.35499C14.0827 5.54272 14.75 7.15363 14.75 8.83333C14.75 9.66504 14.5862 10.4886 14.2679 11.257C14.0511 11.7804 13.7656 12.2711 13.4197 12.7168L17.6848 16.9819C17.9939 17.291 17.9939 17.7923 17.6848 18.1015C17.3756 18.4106 16.8744 18.4106 16.5652 18.1015L12.3001 13.8363C11.8545 14.1822 11.3637 14.4678 10.8403 14.6846C10.0719 15.0029 9.24835 15.1667 8.41665 15.1667C7.58494 15.1667 6.76138 15.0029 5.99298 14.6846C5.22459 14.3663 4.52641 13.8998 3.9383 13.3117C3.3502 12.7236 2.88369 12.0254 2.56541 11.257C2.24713 10.4886 2.08331 9.66504 2.08331 8.83333C2.08331 7.15363 2.75057 5.54272 3.9383 4.35499Z" fill="#667085"/>
</svg>
