<?xml version="1.0" encoding="utf-8"?>
<!-- Generator: Adobe Illustrator 24.1.1, SVG Export Plug-In . SVG Version: 6.00 Build 0)  -->
<svg version="1.1" id="Layer_1" xmlns="http://www.w3.org/2000/svg" xmlns:xlink="http://www.w3.org/1999/xlink" x="0px" y="0px"
	 viewBox="0 0 512 512" style="enable-background:new 0 0 512 512;" xml:space="preserve"
	 fill="none"
	 >
<g   stroke="none" stroke-width="1"  fill="none" fill-rule="evenodd">
	<path d="M377.6,110.9L487.5,1.2L510,23.7L405.3,128.3c40.2,28.7,75.7,70.5,106.7,125.2C446.9,372,361.3,431.2,255.1,431.2
		c-44.4,0-85-10.3-121.8-31L22.5,510.8L0,488.3l105.9-105.8C66.1,352.9,31.2,309.9,1.2,253.5c63-115.3,147.6-172.9,253.8-172.9
		C299.5,80.6,340.4,90.7,377.6,110.9z M156.8,376.6c30.1,15.2,62.8,22.7,98.2,22.7c89.1,0,161.8-47.3,220.1-145.6
		c-27.6-45.2-58.4-79.2-92.7-102.6L333,200.6c11.1,15.6,17.6,34.7,17.6,55.3c0,52.8-42.8,95.6-95.6,95.6c-20.6,0-39.8-6.6-55.4-17.7
		L156.8,376.6z M128.7,359.6l48.4-48.3c-11.1-15.6-17.7-34.7-17.7-55.4c0-52.8,42.8-95.6,95.6-95.6c20.7,0,39.8,6.6,55.5,17.7
		l43.4-43.4c-30.4-14.8-63.3-22.1-98.9-22.1c-89.2,0-160.8,45.9-217.3,141.2C64.6,300.4,94.8,335.6,128.7,359.6z M222.7,310.8
		c9.5,5.6,20.6,8.8,32.4,8.8c35.2,0,63.7-28.5,63.7-63.7c0-11.8-3.2-22.9-8.8-32.3L222.7,310.8z M200.2,288.3l87.3-87.3
		c-9.5-5.6-20.6-8.8-32.4-8.8c-35.2,0-63.7,28.5-63.7,63.7C191.3,267.7,194.5,278.8,200.2,288.3z"  fill="currentColor"/>
</g>
</svg>
