<svg width="20" height="20" viewBox="0 0 20 20" fill="none" xmlns="http://www.w3.org/2000/svg">
    <path fill-rule="evenodd" clip-rule="evenodd"
        d="M1.66663 3.33341C1.66663 2.41294 2.41282 1.66675 3.33329 1.66675H16.6666C17.5871 1.66675 18.3333 2.41294 18.3333 3.33341V5.48824C18.3333 5.93026 18.1577 6.35419 17.8451 6.66675L12.5 12.0119L12.5 14.1667C12.5 14.3878 12.4122 14.5997 12.2559 14.756L8.92255 18.0893C8.68422 18.3277 8.32579 18.399 8.01439 18.27C7.70299 18.141 7.49996 17.8371 7.49996 17.5001V12.0119L2.15478 6.66675C1.84222 6.35419 1.66663 5.93026 1.66663 5.48824V3.33341ZM16.6666 3.33341H3.33329V5.48824L8.67847 10.8334C8.99103 11.146 9.16663 11.5699 9.16663 12.0119V15.4882L10.8333 13.8216V12.0119C10.8333 11.5699 11.0089 11.146 11.3214 10.8334L16.6666 5.48824V3.33341Z"
        fill="currentColor" />
</svg>
