<?xml version="1.0" standalone="no"?>
<!DOCTYPE svg PUBLIC "-//W3C//DTD SVG 20010904//EN" "http://www.w3.org/TR/2001/REC-SVG-20010904/DTD/svg10.dtd">
<svg version="1.0" xmlns="http://www.w3.org/2000/svg"
  width="412.000000pt" height="256.000000pt" viewBox="0 0 412.000000 256.000000"
  preserveAspectRatio="xMidYMid meet" fill="#ff2020">

  <g transform="translate(0.000000,256.000000) scale(0.100000,-0.100000)"
    fill="#ff2020" stroke="none">
    <path fill="#252F4A"
      d="M903 2243 c-19 -4 -23 -11 -23 -42 l0 -37 77 12 78 12 68 -59 c37
-32 71 -59 75 -59 4 0 26 23 50 50 l43 50 -33 40 -33 40 -140 -2 c-77 0 -150
-3 -162 -5z" />
    <path fill="#252F4A" d="M1280 2231 c16 -31 25 -32 60 -6 l34 25 -52 0 c-49 0 -52 -1 -42 -19z" />
    <path
      fill="#252F4A"
      d="M1530 2241 c-166 -37 -317 -205 -393 -439 -46 -142 -61 -239 -61
-402 1 -208 46 -401 131 -555 52 -93 148 -194 220 -232 71 -37 101 -45 179
-44 58 0 174 36 429 131 86 32 189 68 213 75 13 4 22 9 19 11 -2 3 -76 -12
-163 -32 -88 -20 -169 -39 -182 -42 -21 -4 -18 3 27 70 l50 74 158 39 c268 66
267 64 21 64 l-218 1 -26 -52 c-15 -29 -59 -85 -98 -125 -60 -59 -82 -74 -129
-88 -77 -22 -132 -13 -207 36 -142 91 -246 314 -269 572 -31 356 99 697 305
798 55 28 71 31 118 26 29 -3 73 -15 97 -27 58 -30 139 -116 178 -190 l32 -60
457 1 c251 0 453 2 447 4 -5 2 -93 14 -195 25 -102 12 -241 28 -310 36 -69 8
-169 19 -223 25 -54 6 -108 14 -121 17 -14 4 -42 34 -70 76 l-46 68 103 -7
c56 -4 143 -11 192 -16 173 -17 148 -6 -180 76 -333 85 -421 100 -485 86z" />
    <path fill="#252F4A"
      d="M785 2199 c-56 -29 -77 -50 -66 -63 5 -6 14 -38 21 -71 20 -102 11
-96 91 -68 l70 24 92 -53 c50 -29 95 -54 98 -56 7 -3 59 92 59 108 0 5 -30 34
-67 65 -73 63 -65 61 -200 39 l-43 -7 0 52 c0 28 -3 51 -8 51 -4 0 -25 -9 -47
-21z" />
    <path fill="#252F4A"
      d="M604 2038 c-71 -97 -71 -95 -25 -114 34 -14 41 -22 61 -77 12 -34 26
-66 31 -71 5 -5 33 4 68 22 32 18 65 32 72 32 8 0 61 -18 119 -40 58 -22 107
-40 110 -40 3 0 11 19 17 43 7 23 14 49 18 58 5 12 -8 25 -52 49 -32 18 -76
43 -98 56 l-40 23 -75 -29 c-53 -21 -76 -26 -81 -18 -4 6 -13 41 -20 77 -20
112 -40 117 -105 29z" />
    <path fill="#252F4A"
      d="M486 1818 c-41 -114 -40 -121 17 -131 39 -8 51 -15 64 -41 9 -17 27
-48 41 -68 l24 -37 59 49 c35 29 65 47 76 44 40 -9 226 -44 233 -44 7 0 30 84
30 109 0 5 -52 27 -115 50 l-114 42 -67 -41 c-36 -22 -69 -40 -73 -40 -4 0
-20 32 -37 71 -28 69 -47 90 -90 103 -19 6 -25 -1 -48 -66z" />
    <path
      d="M2144 1723 c-4 -21 -11 -47 -17 -58 -6 -11 -11 -31 -12 -45 -1 -14
-7 -68 -13 -120 -13 -103 -16 -388 -6 -440 9 -43 29 -48 63 -16 28 27 31 41
35 159 1 15 2 27 3 27 1 0 30 -36 64 -80 68 -88 95 -103 86 -45 -3 19 -16 49
-28 66 -12 17 -23 41 -24 54 -2 12 -15 41 -29 64 -46 72 -49 87 -20 106 29 19
82 124 91 179 7 46 -14 79 -59 92 -24 7 -34 16 -36 34 -4 30 -38 59 -69 60
-18 0 -23 -7 -29 -37z m137 -123 c18 -10 18 -13 4 -38 -8 -15 -26 -40 -40 -57
l-25 -30 0 30 c0 17 3 47 6 68 7 39 20 45 55 27z m-21 -170 c-12 -17 -24 -29
-27 -26 -6 5 40 65 46 60 2 -1 -7 -17 -19 -34z" />
    <path
      d="M1500 1716 c-5 -11 -11 -29 -14 -38 -3 -10 -14 -18 -25 -18 -33 0
-101 -31 -101 -46 0 -19 33 -34 74 -34 l36 0 -8 -62 c-4 -35 -7 -135 -7 -223
0 -225 24 -293 81 -231 24 25 25 30 23 164 -1 75 4 188 11 249 l13 113 41 11
c22 5 56 14 75 19 19 5 37 8 39 6 2 -3 -2 -40 -9 -83 -18 -116 -16 -265 5
-351 23 -91 50 -126 98 -126 99 0 162 117 173 319 12 229 12 229 -7 265 -10
19 -18 31 -18 25 -7 -126 -43 -365 -67 -436 -40 -120 -70 -37 -73 206 -3 200
-5 210 -52 211 -20 0 -44 7 -53 14 -9 8 -44 15 -78 16 -46 2 -65 7 -76 22 -9
11 -29 22 -44 25 -22 3 -30 0 -37 -17z" />
    <path
      d="M2442 1687 c-14 -17 -41 -511 -33 -597 5 -51 9 -64 21 -61 8 2 33 5
55 6 22 1 45 3 52 3 7 1 39 24 71 51 121 101 132 218 23 237 -20 4 -40 9 -44
11 -4 3 14 28 41 57 27 28 59 74 71 101 19 42 20 53 9 80 -17 41 -24 45 -100
45 -51 0 -68 3 -68 14 0 45 -73 84 -98 53z m205 -137 c-7 -10 -34 -38 -60 -61
l-47 -41 0 51 c0 59 13 70 78 71 41 0 42 -1 29 -20z m-24 -262 c9 -5 17 -17
17 -28 0 -19 -55 -72 -108 -103 l-31 -17 5 72 c3 40 7 78 9 85 4 12 77 7 108
-9z" />
    <path
      d="M2903 1673 c-26 -5 -52 -38 -82 -108 -36 -82 -51 -163 -51 -283 0
-123 10 -161 53 -201 21 -19 32 -22 62 -17 99 19 185 175 185 335 0 54 -41
145 -88 194 -22 24 -24 29 -12 38 13 8 11 12 -9 29 -13 11 -26 19 -30 19 -3
-1 -16 -4 -28 -6z m68 -168 c24 -86 -7 -323 -46 -355 -13 -10 -18 -6 -31 26
-29 67 -16 241 28 373 10 32 12 33 25 16 7 -11 18 -38 24 -60z" />
    <path fill="#252F4A"
      d="M427 1588 c-4 -29 -7 -74 -7 -100 l0 -48 49 0 c46 0 50 -2 101 -61
l54 -62 50 57 51 56 138 0 137 0 2 45 c0 25 1 51 2 57 1 9 -43 21 -127 36
l-128 23 -60 -52 c-69 -59 -69 -59 -126 32 -21 35 -43 59 -53 59 -10 0 -31 3
-47 6 -30 6 -30 5 -36 -48z" />
    <path fill="#252F4A"
      d="M740 1378 c-10 -4 -37 -31 -60 -60 -23 -29 -46 -54 -50 -56 -4 -2
-32 24 -61 58 -54 61 -54 61 -104 58 -43 -3 -50 -6 -48 -23 1 -11 5 -55 8 -97
l7 -78 52 6 c52 6 55 5 110 -40 31 -25 60 -46 64 -46 4 0 23 28 43 63 l37 62
133 20 c89 14 134 25 133 33 -1 7 -2 34 -2 60 l-2 48 -120 -1 c-66 0 -129 -3
-140 -7z" />
    <path fill="#252F4A"
      d="M890 1204 c-41 -7 -89 -16 -106 -19 -27 -5 -37 -16 -68 -75 -21 -39
-40 -70 -43 -70 -3 0 -36 22 -73 50 -59 44 -70 49 -103 43 -21 -3 -40 -10 -43
-15 -6 -9 4 -44 38 -135 l19 -52 40 14 c38 14 41 13 113 -26 l74 -40 7 28 c3
16 15 48 26 73 l19 45 121 38 121 39 -7 45 c-12 83 -7 80 -135 57z" />
    <path fill="#252F4A"
      d="M920 1021 l-104 -37 -23 -55 c-12 -30 -22 -62 -23 -71 0 -31 -18 -29
-91 7 -53 27 -78 35 -100 30 -16 -4 -31 -10 -34 -15 -2 -4 13 -34 35 -66 61
-92 64 -95 96 -88 17 3 53 -3 88 -15 33 -12 64 -21 71 -21 6 0 18 33 26 72
l14 73 99 55 c55 30 99 58 99 63 -6 42 -29 107 -37 106 -6 0 -58 -17 -116 -38z" />
    <path fill="#252F4A"
      d="M1011 860 c-47 -27 -91 -55 -98 -63 -8 -7 -17 -46 -20 -85 -7 -83 -5
-82 -103 -52 -80 25 -97 26 -80 5 33 -40 143 -88 228 -100 l52 -7 0 50 0 51
78 62 c42 35 79 64 81 66 3 2 -8 30 -25 63 l-29 59 -84 -49z" />
    <path fill="#252F4A"
      d="M1101 689 c-65 -55 -72 -64 -69 -92 l3 -32 80 -2 80 -3 33 44 33 45
-38 50 c-21 27 -41 50 -44 50 -3 1 -38 -26 -78 -60z" />
    <path fill="#252F4A" d="M1277 592 c-26 -28 -21 -32 41 -32 l57 0 -30 25 c-36 29 -47 31 -68
7z" />
  </g>
</svg>
